<svg xmlns="http://www.w3.org/2000/svg" xmlns:xlink="http://www.w3.org/1999/xlink" width="500" zoomAndPan="magnify" viewBox="0 0 375 374.999991" height="500" preserveAspectRatio="xMidYMid meet" version="1.2"><defs/><g id="49d53f43d1"><path style=" stroke:none;fill-rule:nonzero;fill:#ffffff;fill-opacity:1;" d="M 192.398438 60.96875 L 179.453125 41.277344 L 211.992188 73.816406 C 211.628906 74.371094 211.28125 74.941406 210.953125 75.515625 C 210.621094 76.09375 210.308594 76.679688 210.015625 77.277344 C 209.71875 77.871094 209.441406 78.476562 209.183594 79.089844 C 208.921875 79.703125 208.683594 80.320312 208.460938 80.949219 C 208.234375 81.574219 208.03125 82.207031 207.847656 82.84375 C 207.660156 83.484375 207.496094 84.128906 207.347656 84.777344 C 207.199219 85.425781 207.074219 86.078125 206.964844 86.734375 C 206.855469 87.390625 206.765625 88.046875 206.695312 88.707031 C 206.625 89.371094 206.578125 90.03125 206.546875 90.695312 C 206.515625 91.363281 206.503906 92.027344 206.515625 92.691406 C 206.523438 93.355469 206.550781 94.019531 206.597656 94.683594 C 206.648438 95.347656 206.714844 96.007812 206.804688 96.667969 C 206.890625 97.328125 206.996094 97.980469 207.125 98.636719 C 207.25 99.289062 207.394531 99.9375 207.558594 100.582031 C 207.722656 101.226562 207.90625 101.863281 208.109375 102.496094 C 208.3125 103.132812 208.535156 103.757812 208.773438 104.378906 C 209.011719 105 209.269531 105.609375 209.546875 106.214844 C 209.824219 106.820312 210.117188 107.417969 210.425781 108.003906 C 210.738281 108.59375 211.066406 109.171875 211.410156 109.738281 C 211.757812 110.308594 212.121094 110.867188 212.496094 111.414062 C 212.875 111.960938 213.269531 112.496094 213.679688 113.019531 C 214.089844 113.542969 214.515625 114.050781 214.957031 114.550781 C 215.394531 115.050781 215.851562 115.535156 216.320312 116.003906 C 216.789062 116.476562 217.269531 116.933594 217.765625 117.375 C 218.261719 117.820312 218.773438 118.246094 219.292969 118.660156 C 219.816406 119.074219 220.347656 119.46875 220.894531 119.851562 C 221.4375 120.230469 221.992188 120.597656 222.558594 120.945312 C 223.125 121.292969 223.703125 121.625 224.289062 121.9375 C 224.875 122.253906 225.46875 122.550781 226.074219 122.828125 C 226.675781 123.105469 227.289062 123.367188 227.90625 123.609375 C 228.527344 123.851562 229.152344 124.078125 229.785156 124.28125 C 230.417969 124.488281 231.054688 124.675781 231.699219 124.84375 C 232.34375 125.011719 232.992188 125.160156 233.644531 125.289062 C 234.292969 125.417969 234.949219 125.53125 235.609375 125.621094 C 236.269531 125.710938 236.929688 125.78125 237.59375 125.832031 C 238.253906 125.886719 238.917969 125.917969 239.582031 125.929688 C 240.25 125.941406 240.914062 125.933594 241.578125 125.90625 C 242.242188 125.878906 242.90625 125.832031 243.566406 125.765625 C 244.226562 125.703125 244.886719 125.617188 245.542969 125.511719 C 246.199219 125.40625 246.855469 125.28125 247.503906 125.136719 C 248.152344 124.992188 248.796875 124.828125 249.4375 124.648438 C 250.074219 124.464844 250.710938 124.265625 251.335938 124.042969 C 251.964844 123.824219 252.585938 123.585938 253.199219 123.332031 C 253.8125 123.074219 254.417969 122.800781 255.015625 122.507812 C 255.613281 122.214844 256.199219 121.90625 256.78125 121.578125 C 257.359375 121.25 257.925781 120.90625 258.484375 120.546875 C 259.042969 120.1875 259.59375 119.808594 260.128906 119.417969 C 260.664062 119.023438 261.1875 118.613281 261.703125 118.191406 C 262.214844 117.765625 262.710938 117.328125 263.199219 116.875 C 263.683594 116.417969 264.15625 115.953125 264.617188 115.46875 C 265.074219 114.988281 265.519531 114.492188 265.945312 113.984375 C 266.375 113.476562 266.789062 112.957031 267.1875 112.425781 C 267.585938 111.890625 267.96875 111.347656 268.335938 110.792969 C 268.703125 110.238281 269.050781 109.671875 269.382812 109.097656 C 269.714844 108.523438 270.03125 107.9375 270.328125 107.34375 C 270.628906 106.746094 270.90625 106.144531 271.171875 105.535156 C 271.433594 104.921875 271.675781 104.304688 271.902344 103.679688 C 272.128906 103.054688 272.335938 102.421875 272.523438 101.785156 C 272.710938 101.144531 272.882812 100.503906 273.03125 99.855469 C 273.183594 99.207031 273.3125 98.554688 273.425781 97.902344 C 273.535156 97.246094 273.628906 96.585938 273.703125 95.925781 C 273.773438 95.265625 273.828125 94.601562 273.859375 93.9375 C 273.894531 93.273438 273.910156 92.609375 273.902344 91.945312 C 273.898438 91.28125 273.871094 90.617188 273.828125 89.953125 C 273.78125 89.289062 273.714844 88.625 273.632812 87.96875 C 273.546875 87.308594 273.445312 86.652344 273.320312 85.996094 C 273.199219 85.34375 273.054688 84.695312 272.894531 84.050781 C 272.730469 83.40625 272.550781 82.765625 272.351562 82.128906 C 272.152344 81.496094 271.933594 80.867188 271.699219 80.246094 C 271.460938 79.625 271.207031 79.011719 270.933594 78.40625 C 270.660156 77.800781 270.371094 77.199219 270.0625 76.613281 C 269.753906 76.023438 269.425781 75.441406 269.085938 74.875 C 268.742188 74.304688 268.382812 73.746094 268.007812 73.195312 C 267.632812 72.648438 267.238281 72.109375 266.832031 71.585938 C 266.425781 71.058594 266 70.546875 265.5625 70.046875 C 265.125 69.546875 264.671875 69.058594 264.207031 68.585938 C 263.738281 68.109375 263.257812 67.652344 262.765625 67.207031 C 262.269531 66.761719 261.765625 66.332031 261.246094 65.917969 C 260.726562 65.5 260.195312 65.101562 259.652344 64.71875 C 259.109375 64.335938 258.554688 63.96875 257.988281 63.617188 C 257.425781 63.265625 256.847656 62.929688 256.265625 62.613281 C 255.679688 62.296875 255.085938 61.996094 254.484375 61.714844 C 253.882812 61.433594 253.273438 61.171875 252.652344 60.925781 C 252.035156 60.679688 251.410156 60.453125 250.78125 60.242188 C 250.148438 60.035156 249.511719 59.84375 248.867188 59.675781 C 248.226562 59.503906 247.578125 59.351562 246.925781 59.21875 C 246.277344 59.085938 245.621094 58.972656 244.960938 58.878906 C 244.304688 58.785156 243.644531 58.710938 242.980469 58.65625 C 242.316406 58.601562 241.652344 58.566406 240.988281 58.550781 C 240.324219 58.535156 239.660156 58.539062 238.996094 58.5625 C 238.332031 58.589844 237.667969 58.632812 237.003906 58.695312 C 236.34375 58.757812 235.683594 58.839844 235.027344 58.941406 C 234.371094 59.046875 233.714844 59.167969 233.066406 59.308594 C 232.417969 59.449219 231.769531 59.609375 231.132812 59.789062 C 230.492188 59.96875 229.855469 60.164062 229.226562 60.382812 C 228.597656 60.597656 227.976562 60.832031 227.363281 61.085938 L 243.71875 85.957031 L 221.78125 64.027344 L 206.839844 49.085938 C 207.328125 48.21875 207.769531 47.324219 208.15625 46.40625 C 208.542969 45.488281 208.878906 44.550781 209.15625 43.59375 C 209.4375 42.636719 209.660156 41.667969 209.828125 40.683594 C 209.992188 39.699219 210.101562 38.710938 210.15625 37.714844 C 210.207031 36.71875 210.203125 35.726562 210.140625 34.730469 C 210.078125 33.734375 209.960938 32.746094 209.78125 31.765625 C 209.605469 30.785156 209.375 29.816406 209.085938 28.863281 C 208.796875 27.90625 208.453125 26.972656 208.058594 26.058594 C 207.660156 25.144531 207.214844 24.253906 206.714844 23.390625 C 206.214844 22.53125 205.667969 21.699219 205.070312 20.898438 C 204.476562 20.097656 203.835938 19.335938 203.152344 18.609375 C 202.46875 17.886719 201.746094 17.199219 200.984375 16.558594 C 200.222656 15.917969 199.425781 15.320312 198.59375 14.769531 C 197.761719 14.222656 196.902344 13.71875 196.011719 13.269531 C 195.121094 12.820312 194.210938 12.421875 193.273438 12.078125 C 192.339844 11.730469 191.386719 11.441406 190.417969 11.207031 C 189.449219 10.972656 188.46875 10.792969 187.480469 10.671875 C 186.488281 10.550781 185.496094 10.488281 184.5 10.480469 C 183.503906 10.472656 182.507812 10.523438 181.519531 10.632812 C 180.527344 10.738281 179.546875 10.90625 178.574219 11.125 C 177.601562 11.347656 176.644531 11.625 175.703125 11.957031 C 174.765625 12.289062 173.847656 12.675781 172.953125 13.113281 C 172.054688 13.550781 171.1875 14.039062 170.351562 14.578125 C 169.511719 15.117188 168.707031 15.699219 167.933594 16.332031 C 167.164062 16.964844 166.429688 17.636719 165.738281 18.355469 C 165.042969 19.070312 164.394531 19.824219 163.789062 20.617188 C 163.179688 21.40625 162.621094 22.230469 162.109375 23.085938 C 161.601562 23.941406 161.140625 24.824219 160.730469 25.734375 C 160.320312 26.644531 159.964844 27.574219 159.664062 28.523438 C 159.363281 29.472656 159.117188 30.4375 158.929688 31.417969 C 158.738281 32.394531 158.605469 33.382812 158.527344 34.375 C 158.453125 35.371094 158.433594 36.367188 158.472656 37.363281 C 158.511719 38.359375 158.609375 39.347656 158.761719 40.332031 C 158.914062 41.320312 159.125 42.292969 159.390625 43.253906 C 159.65625 44.214844 159.976562 45.15625 160.351562 46.078125 C 160.726562 47.003906 161.15625 47.902344 161.632812 48.777344 C 162.113281 49.652344 162.640625 50.496094 163.21875 51.308594 C 163.792969 52.121094 164.414062 52.898438 165.082031 53.640625 C 165.75 54.382812 166.457031 55.082031 167.203125 55.742188 C 167.949219 56.402344 168.734375 57.015625 169.550781 57.585938 C 170.371094 58.15625 171.21875 58.675781 172.097656 59.148438 C 172.976562 59.617188 173.878906 60.035156 174.804688 60.402344 C 175.734375 60.769531 176.675781 61.082031 177.640625 61.339844 C 178.605469 61.597656 179.578125 61.800781 180.566406 61.945312 C 181.550781 62.089844 182.542969 62.175781 183.539062 62.207031 C 184.535156 62.238281 185.53125 62.210938 186.523438 62.125 C 187.519531 62.039062 188.503906 61.898438 189.480469 61.699219 C 190.457031 61.5 191.417969 61.246094 192.367188 60.9375 Z M 192.398438 60.96875 "/><path style=" stroke:none;fill-rule:nonzero;fill:#ffffff;fill-opacity:1;" d="M 319.167969 123.542969 C 318.144531 122.523438 317.046875 121.59375 315.871094 120.753906 C 314.695312 119.917969 313.457031 119.183594 312.15625 118.554688 C 310.855469 117.921875 309.515625 117.40625 308.128906 117 C 306.742188 116.59375 305.332031 116.308594 303.898438 116.136719 C 302.464844 115.96875 301.023438 115.917969 299.582031 115.992188 C 298.140625 116.0625 296.714844 116.253906 295.300781 116.566406 C 293.890625 116.875 292.515625 117.300781 291.179688 117.84375 C 289.839844 118.382812 288.554688 119.03125 287.324219 119.789062 C 286.09375 120.542969 284.933594 121.398438 283.847656 122.347656 C 282.757812 123.296875 281.757812 124.332031 280.84375 125.449219 C 279.929688 126.566406 279.113281 127.753906 278.398438 129.007812 C 277.683594 130.261719 277.074219 131.566406 276.578125 132.921875 C 276.082031 134.277344 275.699219 135.667969 275.433594 137.085938 C 275.171875 138.507812 275.027344 139.9375 275 141.382812 C 274.976562 142.828125 275.070312 144.261719 275.285156 145.691406 C 275.503906 147.117188 275.835938 148.519531 276.285156 149.890625 L 295.980469 136.945312 L 278.378906 154.542969 L 263.4375 169.484375 C 262.882812 169.121094 262.316406 168.773438 261.738281 168.445312 C 261.160156 168.113281 260.574219 167.800781 259.976562 167.507812 C 259.382812 167.210938 258.777344 166.933594 258.167969 166.675781 C 257.554688 166.414062 256.933594 166.175781 256.308594 165.953125 C 255.683594 165.730469 255.050781 165.523438 254.410156 165.339844 C 253.773438 165.152344 253.128906 164.988281 252.480469 164.839844 C 251.832031 164.695312 251.179688 164.566406 250.523438 164.457031 C 249.871094 164.347656 249.210938 164.257812 248.550781 164.191406 C 247.886719 164.121094 247.226562 164.070312 246.5625 164.039062 C 245.898438 164.007812 245.234375 164 244.570312 164.007812 C 243.902344 164.015625 243.238281 164.046875 242.578125 164.09375 C 241.914062 164.140625 241.253906 164.210938 240.59375 164.296875 C 239.933594 164.382812 239.277344 164.492188 238.625 164.617188 C 237.972656 164.742188 237.324219 164.890625 236.679688 165.054688 C 236.035156 165.21875 235.398438 165.402344 234.765625 165.605469 C 234.132812 165.808594 233.503906 166.027344 232.882812 166.265625 C 232.265625 166.507812 231.652344 166.765625 231.046875 167.039062 C 230.441406 167.316406 229.847656 167.609375 229.257812 167.921875 C 228.671875 168.230469 228.09375 168.558594 227.523438 168.90625 C 226.957031 169.25 226.398438 169.613281 225.851562 169.992188 C 225.304688 170.367188 224.769531 170.761719 224.246094 171.171875 C 223.722656 171.582031 223.214844 172.007812 222.714844 172.449219 C 222.21875 172.886719 221.734375 173.34375 221.261719 173.8125 C 220.789062 174.28125 220.332031 174.761719 219.890625 175.257812 C 219.449219 175.753906 219.019531 176.265625 218.605469 176.785156 C 218.195312 177.304688 217.796875 177.839844 217.417969 178.382812 C 217.035156 178.929688 216.671875 179.484375 216.324219 180.050781 C 215.976562 180.617188 215.644531 181.195312 215.328125 181.78125 C 215.015625 182.367188 214.71875 182.960938 214.441406 183.5625 C 214.160156 184.167969 213.902344 184.777344 213.660156 185.398438 C 213.414062 186.015625 213.191406 186.640625 212.984375 187.273438 C 212.78125 187.90625 212.59375 188.542969 212.425781 189.1875 C 212.257812 189.832031 212.109375 190.476562 211.980469 191.128906 C 211.851562 191.78125 211.742188 192.4375 211.648438 193.097656 C 211.558594 193.753906 211.488281 194.414062 211.4375 195.078125 C 211.382812 195.742188 211.351562 196.40625 211.339844 197.070312 C 211.328125 197.734375 211.335938 198.398438 211.363281 199.0625 C 211.390625 199.726562 211.4375 200.390625 211.503906 201.050781 C 211.570312 201.714844 211.65625 202.371094 211.757812 203.027344 C 211.863281 203.683594 211.988281 204.335938 212.132812 204.988281 C 212.277344 205.636719 212.441406 206.28125 212.621094 206.917969 C 212.804688 207.558594 213.003906 208.191406 213.226562 208.820312 C 213.445312 209.445312 213.683594 210.066406 213.9375 210.679688 C 214.195312 211.292969 214.46875 211.898438 214.761719 212.496094 C 215.054688 213.09375 215.363281 213.683594 215.691406 214.261719 C 216.015625 214.839844 216.359375 215.410156 216.722656 215.96875 C 217.082031 216.527344 217.460938 217.074219 217.851562 217.609375 C 218.246094 218.144531 218.652344 218.667969 219.078125 219.179688 C 219.5 219.691406 219.941406 220.191406 220.394531 220.679688 C 220.847656 221.164062 221.316406 221.636719 221.796875 222.09375 C 222.277344 222.554688 222.773438 222.996094 223.28125 223.425781 C 223.789062 223.855469 224.308594 224.269531 224.839844 224.667969 C 225.375 225.066406 225.917969 225.449219 226.472656 225.8125 C 227.027344 226.179688 227.59375 226.527344 228.167969 226.863281 C 228.742188 227.195312 229.328125 227.507812 229.921875 227.808594 C 230.515625 228.105469 231.121094 228.386719 231.730469 228.648438 C 232.339844 228.910156 232.960938 229.152344 233.585938 229.378906 C 234.210938 229.605469 234.839844 229.8125 235.480469 230 C 236.117188 230.1875 236.757812 230.359375 237.40625 230.507812 C 238.054688 230.660156 238.707031 230.789062 239.363281 230.902344 C 240.015625 231.011719 240.675781 231.105469 241.335938 231.179688 C 241.996094 231.25 242.660156 231.304688 243.324219 231.339844 C 243.988281 231.371094 244.652344 231.386719 245.316406 231.378906 C 245.980469 231.375 246.644531 231.347656 247.308594 231.304688 C 247.972656 231.257812 248.632812 231.195312 249.292969 231.109375 C 249.953125 231.023438 250.609375 230.921875 251.261719 230.796875 C 251.914062 230.675781 252.5625 230.53125 253.207031 230.371094 C 253.851562 230.210938 254.492188 230.027344 255.128906 229.828125 C 255.761719 229.628906 256.390625 229.414062 257.011719 229.175781 C 257.632812 228.9375 258.246094 228.683594 258.851562 228.410156 C 259.457031 228.136719 260.054688 227.847656 260.644531 227.539062 C 261.234375 227.230469 261.8125 226.90625 262.382812 226.5625 C 262.953125 226.222656 263.511719 225.863281 264.058594 225.484375 C 264.609375 225.109375 265.144531 224.71875 265.671875 224.3125 C 266.195312 223.902344 266.707031 223.480469 267.210938 223.042969 C 267.710938 222.605469 268.195312 222.152344 268.667969 221.6875 C 269.144531 221.21875 269.601562 220.738281 270.046875 220.246094 C 270.492188 219.753906 270.921875 219.246094 271.335938 218.726562 C 271.753906 218.207031 272.152344 217.675781 272.535156 217.132812 C 272.917969 216.589844 273.285156 216.035156 273.636719 215.472656 C 273.988281 214.90625 274.320312 214.332031 274.640625 213.746094 C 274.957031 213.164062 275.253906 212.570312 275.535156 211.96875 C 275.820312 211.367188 276.082031 210.753906 276.328125 210.136719 C 276.574219 209.519531 276.800781 208.894531 277.007812 208.265625 C 277.21875 207.632812 277.40625 206.996094 277.578125 206.355469 C 277.75 205.710938 277.902344 205.0625 278.035156 204.414062 C 278.167969 203.761719 278.28125 203.105469 278.375 202.449219 C 278.46875 201.789062 278.542969 201.128906 278.597656 200.46875 C 278.652344 199.804688 278.6875 199.140625 278.703125 198.476562 C 278.71875 197.8125 278.714844 197.148438 278.6875 196.484375 C 278.664062 195.820312 278.621094 195.15625 278.558594 194.492188 C 278.496094 193.832031 278.414062 193.171875 278.3125 192.515625 C 278.207031 191.859375 278.085938 191.207031 277.945312 190.554688 C 277.804688 189.90625 277.644531 189.261719 277.464844 188.621094 C 277.289062 187.980469 277.089844 187.347656 276.871094 186.71875 C 276.65625 186.089844 276.421875 185.46875 276.167969 184.851562 L 251.296875 201.203125 L 273.226562 179.273438 L 288.167969 164.328125 C 288.84375 164.707031 289.53125 165.054688 290.238281 165.371094 C 290.941406 165.6875 291.660156 165.972656 292.390625 166.222656 C 293.121094 166.476562 293.859375 166.695312 294.609375 166.878906 C 295.359375 167.066406 296.117188 167.21875 296.882812 167.335938 C 297.644531 167.453125 298.414062 167.535156 299.183594 167.585938 C 299.957031 167.636719 300.726562 167.648438 301.5 167.628906 C 302.273438 167.609375 303.042969 167.554688 303.808594 167.464844 C 304.578125 167.375 305.339844 167.253906 306.097656 167.097656 C 306.851562 166.9375 307.601562 166.75 308.339844 166.523438 C 309.078125 166.300781 309.808594 166.042969 310.523438 165.753906 C 311.242188 165.464844 311.941406 165.144531 312.628906 164.789062 C 313.316406 164.4375 313.988281 164.054688 314.640625 163.644531 C 315.296875 163.230469 315.929688 162.789062 316.542969 162.320312 C 317.15625 161.851562 317.75 161.355469 318.316406 160.832031 C 318.886719 160.3125 319.433594 159.765625 319.953125 159.191406 C 320.472656 158.621094 320.96875 158.027344 321.433594 157.414062 C 321.902344 156.796875 322.339844 156.164062 322.75 155.507812 C 323.164062 154.855469 323.542969 154.183594 323.894531 153.492188 C 324.242188 152.804688 324.5625 152.101562 324.851562 151.382812 C 325.136719 150.667969 325.390625 149.9375 325.613281 149.199219 C 325.835938 148.457031 326.023438 147.710938 326.179688 146.953125 C 326.335938 146.195312 326.457031 145.433594 326.542969 144.664062 C 326.628906 143.898438 326.679688 143.125 326.699219 142.355469 C 326.714844 141.582031 326.699219 140.808594 326.648438 140.039062 C 326.597656 139.269531 326.511719 138.5 326.390625 137.738281 C 326.269531 136.972656 326.117188 136.21875 325.929688 135.46875 C 325.742188 134.71875 325.519531 133.980469 325.265625 133.25 C 325.011719 132.519531 324.726562 131.800781 324.40625 131.097656 C 324.089844 130.394531 323.738281 129.707031 323.359375 129.03125 C 322.980469 128.359375 322.570312 127.707031 322.132812 127.070312 C 321.691406 126.433594 321.226562 125.816406 320.734375 125.222656 C 320.238281 124.628906 319.71875 124.058594 319.175781 123.511719 Z M 319.167969 123.542969 "/><path style=" stroke:none;fill-rule:nonzero;fill:#ffffff;fill-opacity:1;" d="M 181.773438 239.367188 L 194.722656 259.058594 L 177.125 241.460938 L 162.179688 226.519531 C 162.546875 225.960938 162.890625 225.394531 163.222656 224.816406 C 163.550781 224.242188 163.863281 223.652344 164.160156 223.058594 C 164.453125 222.460938 164.730469 221.859375 164.992188 221.246094 C 165.25 220.632812 165.492188 220.015625 165.714844 219.386719 C 165.9375 218.761719 166.140625 218.128906 166.328125 217.488281 C 166.511719 216.851562 166.679688 216.207031 166.828125 215.558594 C 166.972656 214.910156 167.101562 214.257812 167.210938 213.601562 C 167.320312 212.945312 167.410156 212.289062 167.476562 211.625 C 167.546875 210.964844 167.597656 210.300781 167.628906 209.636719 C 167.660156 208.972656 167.667969 208.308594 167.660156 207.644531 C 167.652344 206.980469 167.621094 206.316406 167.574219 205.652344 C 167.527344 204.988281 167.457031 204.328125 167.371094 203.667969 C 167.285156 203.007812 167.175781 202.351562 167.050781 201.699219 C 166.925781 201.046875 166.777344 200.398438 166.613281 199.753906 C 166.449219 199.109375 166.265625 198.472656 166.0625 197.835938 C 165.859375 197.203125 165.640625 196.578125 165.402344 195.957031 C 165.160156 195.335938 164.902344 194.722656 164.628906 194.117188 C 164.351562 193.515625 164.058594 192.917969 163.746094 192.328125 C 163.4375 191.742188 163.109375 191.164062 162.761719 190.59375 C 162.417969 190.027344 162.054688 189.46875 161.675781 188.921875 C 161.296875 188.375 160.902344 187.839844 160.492188 187.316406 C 160.082031 186.792969 159.660156 186.28125 159.21875 185.785156 C 158.777344 185.285156 158.324219 184.800781 157.855469 184.328125 C 157.386719 183.859375 156.902344 183.402344 156.40625 182.957031 C 155.910156 182.515625 155.402344 182.089844 154.878906 181.675781 C 154.359375 181.261719 153.824219 180.867188 153.28125 180.484375 C 152.734375 180.101562 152.179688 179.738281 151.613281 179.390625 C 151.046875 179.042969 150.472656 178.710938 149.886719 178.398438 C 149.296875 178.082031 148.703125 177.785156 148.101562 177.507812 C 147.496094 177.226562 146.886719 176.96875 146.265625 176.726562 C 145.648438 176.480469 145.019531 176.257812 144.390625 176.050781 C 143.757812 175.847656 143.117188 175.660156 142.476562 175.492188 C 141.832031 175.324219 141.183594 175.175781 140.53125 175.046875 C 139.878906 174.914062 139.222656 174.804688 138.566406 174.714844 C 137.90625 174.625 137.246094 174.554688 136.582031 174.5 C 135.917969 174.449219 135.253906 174.417969 134.589844 174.40625 C 133.925781 174.394531 133.261719 174.402344 132.597656 174.429688 C 131.933594 174.453125 131.269531 174.5 130.609375 174.566406 C 129.945312 174.632812 129.285156 174.71875 128.628906 174.824219 C 127.972656 174.929688 127.320312 175.054688 126.671875 175.199219 C 126.023438 175.34375 125.378906 175.507812 124.738281 175.6875 C 124.097656 175.871094 123.464844 176.070312 122.835938 176.289062 C 122.210938 176.511719 121.589844 176.75 120.976562 177.003906 C 120.363281 177.261719 119.757812 177.535156 119.160156 177.828125 C 118.5625 178.121094 117.972656 178.429688 117.394531 178.757812 C 116.816406 179.082031 116.246094 179.425781 115.6875 179.789062 C 115.128906 180.148438 114.582031 180.527344 114.046875 180.917969 C 113.507812 181.3125 112.984375 181.722656 112.472656 182.144531 C 111.960938 182.570312 111.460938 183.007812 110.976562 183.460938 C 110.488281 183.914062 110.015625 184.382812 109.558594 184.863281 C 109.101562 185.347656 108.65625 185.84375 108.226562 186.351562 C 107.796875 186.859375 107.382812 187.378906 106.984375 187.910156 C 106.585938 188.441406 106.207031 188.988281 105.839844 189.542969 C 105.472656 190.097656 105.125 190.664062 104.789062 191.238281 C 104.457031 191.8125 104.140625 192.398438 103.84375 192.992188 C 103.546875 193.585938 103.265625 194.191406 103.003906 194.800781 C 102.742188 195.414062 102.496094 196.03125 102.273438 196.65625 C 102.046875 197.28125 101.839844 197.914062 101.652344 198.550781 C 101.460938 199.1875 101.292969 199.832031 101.140625 200.480469 C 100.992188 201.128906 100.859375 201.777344 100.75 202.433594 C 100.636719 203.089844 100.546875 203.75 100.472656 204.410156 C 100.398438 205.070312 100.347656 205.734375 100.3125 206.398438 C 100.28125 207.0625 100.265625 207.726562 100.273438 208.390625 C 100.277344 209.054688 100.304688 209.71875 100.347656 210.382812 C 100.394531 211.046875 100.457031 211.707031 100.542969 212.367188 C 100.625 213.027344 100.730469 213.683594 100.851562 214.335938 C 100.976562 214.992188 101.117188 215.640625 101.28125 216.285156 C 101.441406 216.929688 101.621094 217.570312 101.820312 218.203125 C 102.023438 218.839844 102.238281 219.464844 102.476562 220.089844 C 102.714844 220.710938 102.96875 221.324219 103.242188 221.929688 C 103.515625 222.535156 103.804688 223.132812 104.113281 223.722656 C 104.421875 224.3125 104.746094 224.890625 105.089844 225.460938 C 105.433594 226.03125 105.792969 226.589844 106.167969 227.140625 C 106.542969 227.6875 106.933594 228.226562 107.34375 228.75 C 107.75 229.277344 108.171875 229.789062 108.609375 230.289062 C 109.050781 230.789062 109.5 231.277344 109.96875 231.75 C 110.433594 232.222656 110.914062 232.683594 111.410156 233.128906 C 111.902344 233.574219 112.410156 234.003906 112.929688 234.417969 C 113.449219 234.835938 113.980469 235.234375 114.523438 235.617188 C 115.066406 236 115.621094 236.367188 116.183594 236.71875 C 116.75 237.070312 117.324219 237.402344 117.910156 237.722656 C 118.496094 238.039062 119.085938 238.335938 119.691406 238.617188 C 120.292969 238.902344 120.902344 239.164062 121.519531 239.410156 C 122.136719 239.65625 122.761719 239.882812 123.394531 240.089844 C 124.027344 240.300781 124.664062 240.488281 125.304688 240.660156 C 125.949219 240.832031 126.59375 240.984375 127.246094 241.117188 C 127.898438 241.25 128.554688 241.363281 129.210938 241.457031 C 129.871094 241.550781 130.53125 241.625 131.195312 241.679688 C 131.855469 241.734375 132.519531 241.769531 133.183594 241.785156 C 133.851562 241.800781 134.515625 241.796875 135.179688 241.769531 C 135.84375 241.746094 136.507812 241.703125 137.167969 241.640625 C 137.832031 241.578125 138.492188 241.496094 139.148438 241.390625 C 139.804688 241.289062 140.457031 241.167969 141.109375 241.027344 C 141.757812 240.886719 142.402344 240.726562 143.042969 240.546875 C 143.683594 240.367188 144.316406 240.171875 144.945312 239.953125 C 145.574219 239.738281 146.199219 239.5 146.8125 239.25 L 130.453125 214.375 L 152.394531 236.308594 L 167.328125 251.25 C 166.835938 252.117188 166.394531 253.011719 166.007812 253.929688 C 165.617188 254.847656 165.285156 255.785156 165.003906 256.746094 C 164.726562 257.703125 164.5 258.671875 164.332031 259.65625 C 164.167969 260.640625 164.054688 261.628906 164.003906 262.625 C 163.949219 263.621094 163.953125 264.617188 164.015625 265.613281 C 164.078125 266.609375 164.199219 267.597656 164.375 268.582031 C 164.550781 269.5625 164.78125 270.53125 165.070312 271.484375 C 165.359375 272.441406 165.703125 273.375 166.097656 274.292969 C 166.496094 275.207031 166.941406 276.097656 167.441406 276.960938 C 167.941406 277.824219 168.488281 278.65625 169.085938 279.457031 C 169.679688 280.257812 170.320312 281.019531 171.003906 281.746094 C 171.6875 282.472656 172.410156 283.15625 173.175781 283.800781 C 173.9375 284.445312 174.734375 285.039062 175.566406 285.589844 C 176.398438 286.140625 177.257812 286.640625 178.148438 287.09375 C 179.039062 287.542969 179.953125 287.941406 180.886719 288.289062 C 181.824219 288.632812 182.777344 288.925781 183.746094 289.160156 C 184.714844 289.394531 185.695312 289.574219 186.683594 289.695312 C 187.675781 289.816406 188.667969 289.882812 189.667969 289.890625 C 190.664062 289.894531 191.660156 289.847656 192.652344 289.738281 C 193.644531 289.628906 194.625 289.464844 195.597656 289.242188 C 196.570312 289.023438 197.527344 288.746094 198.46875 288.414062 C 199.410156 288.082031 200.328125 287.695312 201.222656 287.257812 C 202.121094 286.820312 202.988281 286.332031 203.828125 285.792969 C 204.667969 285.253906 205.472656 284.667969 206.246094 284.039062 C 207.019531 283.40625 207.75 282.730469 208.445312 282.015625 C 209.140625 281.296875 209.789062 280.542969 210.398438 279.753906 C 211.003906 278.960938 211.5625 278.136719 212.074219 277.28125 C 212.585938 276.421875 213.046875 275.539062 213.457031 274.628906 C 213.867188 273.722656 214.222656 272.789062 214.523438 271.839844 C 214.828125 270.890625 215.074219 269.925781 215.261719 268.945312 C 215.453125 267.964844 215.585938 266.976562 215.664062 265.984375 C 215.738281 264.988281 215.757812 263.992188 215.71875 262.996094 C 215.679688 262 215.585938 261.007812 215.429688 260.023438 C 215.277344 259.035156 215.066406 258.0625 214.800781 257.101562 C 214.535156 256.140625 214.214844 255.195312 213.839844 254.273438 C 213.464844 253.347656 213.039062 252.449219 212.558594 251.574219 C 212.078125 250.699219 211.550781 249.851562 210.976562 249.039062 C 210.398438 248.226562 209.777344 247.445312 209.109375 246.703125 C 208.441406 245.960938 207.734375 245.261719 206.988281 244.601562 C 206.238281 243.941406 205.457031 243.324219 204.636719 242.753906 C 203.820312 242.183594 202.96875 241.664062 202.089844 241.191406 C 201.210938 240.722656 200.308594 240.300781 199.378906 239.933594 C 198.453125 239.566406 197.507812 239.253906 196.542969 238.996094 C 195.578125 238.738281 194.605469 238.539062 193.617188 238.394531 C 192.628906 238.246094 191.636719 238.160156 190.640625 238.128906 C 189.644531 238.097656 188.648438 238.125 187.652344 238.210938 C 186.660156 238.296875 185.675781 238.4375 184.695312 238.636719 C 183.71875 238.835938 182.757812 239.089844 181.808594 239.398438 Z M 181.773438 239.367188 "/><path style=" stroke:none;fill-rule:nonzero;fill:#ffffff;fill-opacity:1;" d="M 78.195312 163.390625 L 110.734375 130.851562 C 111.292969 131.214844 111.859375 131.5625 112.4375 131.890625 C 113.015625 132.222656 113.601562 132.535156 114.195312 132.828125 C 114.792969 133.125 115.394531 133.402344 116.007812 133.660156 C 116.621094 133.921875 117.238281 134.160156 117.867188 134.382812 C 118.492188 134.605469 119.125 134.808594 119.761719 134.996094 C 120.402344 135.179688 121.042969 135.347656 121.691406 135.496094 C 122.339844 135.640625 122.992188 135.769531 123.648438 135.878906 C 124.304688 135.988281 124.964844 136.074219 125.625 136.144531 C 126.285156 136.214844 126.949219 136.265625 127.613281 136.296875 C 128.277344 136.324219 128.941406 136.335938 129.605469 136.328125 C 130.269531 136.320312 130.933594 136.289062 131.597656 136.242188 C 132.261719 136.195312 132.921875 136.125 133.582031 136.039062 C 134.238281 135.949219 134.894531 135.84375 135.546875 135.71875 C 136.199219 135.589844 136.847656 135.445312 137.492188 135.28125 C 138.136719 135.117188 138.777344 134.933594 139.410156 134.730469 C 140.042969 134.527344 140.667969 134.308594 141.289062 134.066406 C 141.910156 133.828125 142.523438 133.570312 143.128906 133.292969 C 143.730469 133.019531 144.328125 132.726562 144.914062 132.414062 C 145.503906 132.101562 146.082031 131.773438 146.648438 131.429688 C 147.21875 131.085938 147.773438 130.722656 148.320312 130.34375 C 148.867188 129.964844 149.402344 129.570312 149.925781 129.164062 C 150.449219 128.753906 150.960938 128.328125 151.457031 127.886719 C 151.957031 127.445312 152.441406 126.992188 152.914062 126.523438 C 153.382812 126.054688 153.839844 125.570312 154.285156 125.074219 C 154.726562 124.578125 155.152344 124.070312 155.566406 123.550781 C 155.980469 123.027344 156.375 122.496094 156.757812 121.949219 C 157.136719 121.40625 157.503906 120.851562 157.851562 120.285156 C 158.199219 119.71875 158.53125 119.140625 158.84375 118.554688 C 159.160156 117.96875 159.453125 117.375 159.734375 116.773438 C 160.011719 116.167969 160.273438 115.558594 160.515625 114.9375 C 160.757812 114.320312 160.984375 113.691406 161.1875 113.0625 C 161.394531 112.429688 161.582031 111.792969 161.75 111.148438 C 161.917969 110.503906 162.066406 109.855469 162.195312 109.203125 C 162.324219 108.554688 162.433594 107.898438 162.523438 107.238281 C 162.617188 106.582031 162.6875 105.917969 162.738281 105.257812 C 162.789062 104.59375 162.820312 103.929688 162.832031 103.265625 C 162.847656 102.601562 162.839844 101.9375 162.8125 101.273438 C 162.785156 100.609375 162.738281 99.945312 162.671875 99.285156 C 162.605469 98.621094 162.519531 97.964844 162.414062 97.304688 C 162.308594 96.648438 162.183594 95.996094 162.039062 95.347656 C 161.898438 94.699219 161.734375 94.054688 161.550781 93.414062 C 161.371094 92.777344 161.167969 92.144531 160.949219 91.515625 C 160.730469 90.886719 160.492188 90.265625 160.234375 89.652344 C 159.980469 89.039062 159.703125 88.433594 159.414062 87.839844 C 159.121094 87.242188 158.8125 86.652344 158.484375 86.074219 C 158.15625 85.496094 157.8125 84.925781 157.453125 84.367188 C 157.09375 83.808594 156.714844 83.261719 156.320312 82.726562 C 155.929688 82.191406 155.519531 81.664062 155.097656 81.152344 C 154.671875 80.640625 154.234375 80.144531 153.78125 79.65625 C 153.328125 79.171875 152.859375 78.699219 152.378906 78.242188 C 151.894531 77.78125 151.402344 77.339844 150.894531 76.910156 C 150.386719 76.480469 149.863281 76.066406 149.332031 75.667969 C 148.800781 75.269531 148.257812 74.886719 147.703125 74.523438 C 147.148438 74.15625 146.582031 73.804688 146.007812 73.472656 C 145.429688 73.140625 144.84375 72.824219 144.25 72.527344 C 143.65625 72.230469 143.054688 71.949219 142.445312 71.6875 C 141.832031 71.425781 141.214844 71.179688 140.589844 70.957031 C 139.964844 70.730469 139.332031 70.523438 138.695312 70.335938 C 138.058594 70.144531 137.414062 69.976562 136.765625 69.828125 C 136.121094 69.675781 135.46875 69.546875 134.8125 69.433594 C 134.15625 69.320312 133.5 69.230469 132.839844 69.15625 C 132.175781 69.082031 131.515625 69.03125 130.851562 68.996094 C 130.1875 68.964844 129.523438 68.949219 128.859375 68.957031 C 128.195312 68.960938 127.53125 68.988281 126.867188 69.03125 C 126.203125 69.078125 125.542969 69.140625 124.882812 69.226562 C 124.222656 69.308594 123.566406 69.414062 122.914062 69.535156 C 122.257812 69.660156 121.609375 69.800781 120.964844 69.964844 C 120.320312 70.125 119.679688 70.304688 119.046875 70.503906 C 118.414062 70.703125 117.785156 70.921875 117.164062 71.160156 C 116.542969 71.394531 115.929688 71.652344 115.324219 71.921875 C 114.714844 72.195312 114.117188 72.488281 113.53125 72.796875 C 112.941406 73.105469 112.359375 73.429688 111.792969 73.773438 C 111.222656 74.113281 110.664062 74.472656 110.113281 74.847656 C 109.566406 75.226562 109.027344 75.617188 108.503906 76.023438 C 107.976562 76.429688 107.464844 76.855469 106.964844 77.292969 C 106.464844 77.730469 105.976562 78.183594 105.503906 78.648438 C 105.03125 79.113281 104.570312 79.59375 104.125 80.089844 C 103.679688 80.582031 103.25 81.089844 102.835938 81.609375 C 102.421875 82.128906 102.023438 82.660156 101.636719 83.203125 C 101.253906 83.746094 100.886719 84.300781 100.535156 84.863281 C 100.1875 85.429688 99.851562 86.003906 99.535156 86.585938 C 99.21875 87.171875 98.917969 87.765625 98.636719 88.367188 C 98.355469 88.96875 98.09375 89.578125 97.847656 90.199219 C 97.601562 90.816406 97.375 91.441406 97.164062 92.070312 C 96.957031 92.703125 96.765625 93.339844 96.597656 93.980469 C 96.425781 94.625 96.273438 95.269531 96.140625 95.921875 C 96.007812 96.574219 95.894531 97.226562 95.800781 97.886719 C 95.707031 98.542969 95.632812 99.207031 95.578125 99.867188 C 95.523438 100.53125 95.488281 101.195312 95.472656 101.859375 C 95.457031 102.523438 95.460938 103.1875 95.484375 103.851562 C 95.507812 104.515625 95.550781 105.179688 95.617188 105.839844 C 95.679688 106.503906 95.761719 107.164062 95.863281 107.820312 C 95.964844 108.476562 96.085938 109.128906 96.226562 109.777344 C 96.367188 110.429688 96.527344 111.074219 96.707031 111.714844 C 96.886719 112.355469 97.085938 112.988281 97.300781 113.617188 C 97.519531 114.246094 97.753906 114.867188 98.007812 115.480469 L 122.878906 99.132812 L 86.007812 136.003906 C 85.136719 135.515625 84.246094 135.074219 83.324219 134.6875 C 82.40625 134.296875 81.46875 133.964844 80.511719 133.6875 C 79.554688 133.40625 78.582031 133.183594 77.601562 133.015625 C 76.617188 132.847656 75.628906 132.738281 74.632812 132.6875 C 73.636719 132.632812 72.640625 132.636719 71.644531 132.699219 C 70.648438 132.761719 69.660156 132.882812 68.679688 133.058594 C 67.699219 133.234375 66.730469 133.46875 65.773438 133.757812 C 64.820312 134.042969 63.886719 134.386719 62.96875 134.785156 C 62.054688 135.179688 61.164062 135.628906 60.300781 136.128906 C 59.4375 136.628906 58.609375 137.175781 57.808594 137.769531 C 57.007812 138.367188 56.246094 139.003906 55.519531 139.6875 C 54.792969 140.375 54.109375 141.097656 53.464844 141.859375 C 52.824219 142.621094 52.226562 143.417969 51.675781 144.25 C 51.128906 145.082031 50.625 145.945312 50.175781 146.832031 C 49.726562 147.722656 49.328125 148.636719 48.980469 149.570312 C 48.636719 150.507812 48.347656 151.460938 48.113281 152.429688 C 47.878906 153.398438 47.699219 154.378906 47.578125 155.367188 C 47.457031 156.359375 47.390625 157.351562 47.382812 158.347656 C 47.378906 159.347656 47.429688 160.339844 47.535156 161.332031 C 47.644531 162.324219 47.808594 163.304688 48.03125 164.277344 C 48.253906 165.25 48.527344 166.207031 48.863281 167.148438 C 49.195312 168.085938 49.578125 169.003906 50.015625 169.902344 C 50.457031 170.796875 50.945312 171.664062 51.484375 172.503906 C 52.023438 173.34375 52.605469 174.148438 53.238281 174.921875 C 53.871094 175.691406 54.542969 176.425781 55.261719 177.117188 C 55.976562 177.8125 56.730469 178.464844 57.523438 179.070312 C 58.316406 179.675781 59.140625 180.234375 59.996094 180.746094 C 60.851562 181.257812 61.734375 181.71875 62.644531 182.125 C 63.554688 182.535156 64.484375 182.890625 65.433594 183.191406 C 66.386719 183.496094 67.351562 183.742188 68.328125 183.929688 C 69.308594 184.121094 70.296875 184.253906 71.289062 184.328125 C 72.285156 184.40625 73.28125 184.425781 74.277344 184.386719 C 75.273438 184.347656 76.261719 184.25 77.25 184.097656 C 78.234375 183.941406 79.207031 183.730469 80.167969 183.464844 C 81.128906 183.199219 82.074219 182.878906 82.996094 182.503906 C 83.921875 182.128906 84.820312 181.703125 85.695312 181.222656 C 86.570312 180.742188 87.414062 180.214844 88.226562 179.636719 C 89.039062 179.0625 89.820312 178.441406 90.558594 177.773438 C 91.300781 177.105469 92.003906 176.398438 92.664062 175.652344 C 93.324219 174.902344 93.9375 174.121094 94.507812 173.300781 C 95.078125 172.484375 95.597656 171.632812 96.066406 170.753906 C 96.539062 169.875 96.957031 168.972656 97.324219 168.046875 C 97.691406 167.117188 98.003906 166.171875 98.261719 165.207031 C 98.519531 164.246094 98.71875 163.269531 98.863281 162.285156 C 99.011719 161.296875 99.097656 160.304688 99.128906 159.308594 C 99.15625 158.3125 99.128906 157.316406 99.046875 156.320312 C 98.960938 155.328125 98.816406 154.34375 98.621094 153.367188 C 98.421875 152.386719 98.164062 151.425781 97.855469 150.476562 Z M 78.195312 163.390625 "/><g style="fill:#ffffff;fill-opacity:1;"><g transform="translate(146.121631, 318.285068)"><path style="stroke:none" d="M 0.78125 -14.328125 L 8.234375 -14.328125 L 8.296875 -12.9375 L 6.71875 -12.5 C 6.695312 -12.269531 6.671875 -11.941406 6.640625 -11.515625 C 6.617188 -11.097656 6.597656 -10.632812 6.578125 -10.125 C 6.566406 -9.625 6.5625 -9.128906 6.5625 -8.640625 L 6.5625 -6.890625 C 6.5625 -5.972656 6.671875 -5.1875 6.890625 -4.53125 C 7.117188 -3.882812 7.472656 -3.382812 7.953125 -3.03125 C 8.441406 -2.6875 9.070312 -2.515625 9.84375 -2.515625 C 10.625 -2.515625 11.25 -2.679688 11.71875 -3.015625 C 12.1875 -3.347656 12.53125 -3.832031 12.75 -4.46875 C 12.976562 -5.113281 13.09375 -5.894531 13.09375 -6.8125 L 13.09375 -8.203125 C 13.09375 -8.773438 13.082031 -9.378906 13.0625 -10.015625 C 13.039062 -10.660156 13.019531 -11.222656 13 -11.703125 C 12.976562 -12.179688 12.953125 -12.445312 12.921875 -12.5 L 11.203125 -12.9375 L 11.28125 -14.328125 L 17.140625 -14.328125 L 17.21875 -12.9375 L 15.625 -12.5 C 15.59375 -12.445312 15.5625 -12.179688 15.53125 -11.703125 C 15.5 -11.222656 15.472656 -10.660156 15.453125 -10.015625 C 15.441406 -9.378906 15.4375 -8.773438 15.4375 -8.203125 L 15.4375 -6.21875 C 15.4375 -4.988281 15.191406 -3.882812 14.703125 -2.90625 C 14.222656 -1.925781 13.523438 -1.160156 12.609375 -0.609375 C 11.691406 -0.0546875 10.570312 0.21875 9.25 0.21875 C 7.050781 0.21875 5.367188 -0.351562 4.203125 -1.5 C 3.046875 -2.644531 2.46875 -4.273438 2.46875 -6.390625 L 2.46875 -8.640625 C 2.46875 -9.191406 2.457031 -9.753906 2.4375 -10.328125 C 2.425781 -10.898438 2.40625 -11.390625 2.375 -11.796875 C 2.351562 -12.203125 2.328125 -12.4375 2.296875 -12.5 L 0.703125 -12.9375 Z M 0.78125 -14.328125 "/></g></g><g style="fill:#ffffff;fill-opacity:1;"><g transform="translate(164.014341, 318.285068)"><path style="stroke:none" d="M 0.953125 0 L 0.875 -1.390625 L 2.46875 -1.828125 C 2.46875 -1.929688 2.46875 -2.128906 2.46875 -2.421875 C 2.476562 -2.722656 2.488281 -3.078125 2.5 -3.484375 C 2.507812 -3.898438 2.519531 -4.304688 2.53125 -4.703125 C 2.539062 -5.097656 2.546875 -5.4375 2.546875 -5.71875 L 2.546875 -8.640625 C 2.546875 -9.273438 2.535156 -9.875 2.515625 -10.4375 C 2.492188 -11 2.46875 -11.46875 2.4375 -11.84375 C 2.40625 -12.21875 2.375 -12.425781 2.34375 -12.46875 L 0.75 -12.9375 L 0.828125 -14.328125 L 7.734375 -14.328125 C 9.816406 -14.328125 11.335938 -14.023438 12.296875 -13.421875 C 13.265625 -12.828125 13.75 -11.851562 13.75 -10.5 C 13.75 -9.695312 13.488281 -8.984375 12.96875 -8.359375 C 12.457031 -7.734375 11.75 -7.238281 10.84375 -6.875 C 9.945312 -6.519531 8.910156 -6.34375 7.734375 -6.34375 L 5.953125 -6.34375 L 5.953125 -7.953125 L 7.0625 -7.953125 C 7.757812 -7.953125 8.332031 -8.203125 8.78125 -8.703125 C 9.238281 -9.203125 9.46875 -9.84375 9.46875 -10.625 C 9.46875 -11.320312 9.28125 -11.859375 8.90625 -12.234375 C 8.53125 -12.609375 7.988281 -12.796875 7.28125 -12.796875 L 6.640625 -12.796875 C 6.640625 -12.734375 6.632812 -12.546875 6.625 -12.234375 C 6.613281 -11.921875 6.601562 -11.546875 6.59375 -11.109375 C 6.59375 -10.679688 6.59375 -10.25 6.59375 -9.8125 C 6.59375 -9.375 6.59375 -9 6.59375 -8.6875 L 6.59375 -5.71875 C 6.59375 -5.457031 6.59375 -5.070312 6.59375 -4.5625 C 6.601562 -4.0625 6.613281 -3.550781 6.625 -3.03125 C 6.632812 -2.519531 6.640625 -2.117188 6.640625 -1.828125 L 7.953125 -1.390625 L 7.890625 0 Z M 14.421875 0.3125 C 13.398438 0.3125 12.484375 0.160156 11.671875 -0.140625 C 10.859375 -0.453125 10.160156 -0.910156 9.578125 -1.515625 C 9.003906 -2.117188 8.535156 -2.859375 8.171875 -3.734375 L 6.984375 -6.734375 L 10.234375 -7.5 L 13.3125 -3.34375 C 13.570312 -3.019531 13.851562 -2.710938 14.15625 -2.421875 C 14.46875 -2.140625 14.800781 -1.890625 15.15625 -1.671875 C 15.519531 -1.453125 15.90625 -1.273438 16.3125 -1.140625 L 16.28125 0.140625 C 15.957031 0.210938 15.644531 0.257812 15.34375 0.28125 C 15.039062 0.300781 14.734375 0.3125 14.421875 0.3125 Z M 14.421875 0.3125 "/></g></g><g style="fill:#ffffff;fill-opacity:1;"><g transform="translate(180.320386, 318.285068)"><path style="stroke:none" d="M 2.34375 -1.859375 C 2.394531 -1.941406 2.4375 -2.351562 2.46875 -3.09375 C 2.5 -3.84375 2.515625 -4.71875 2.515625 -5.71875 L 2.515625 -8.640625 C 2.515625 -9.597656 2.5 -10.453125 2.46875 -11.203125 C 2.4375 -11.953125 2.394531 -12.367188 2.34375 -12.453125 L 0.75 -12.96875 L 0.828125 -14.328125 L 8.5 -14.328125 C 10.289062 -14.328125 11.613281 -14.046875 12.46875 -13.484375 C 13.320312 -12.921875 13.75 -12.054688 13.75 -10.890625 C 13.75 -9.992188 13.332031 -9.25 12.5 -8.65625 C 11.664062 -8.0625 10.566406 -7.722656 9.203125 -7.640625 L 9.625 -7.859375 C 11.164062 -7.773438 12.359375 -7.414062 13.203125 -6.78125 C 14.054688 -6.144531 14.484375 -5.300781 14.484375 -4.25 C 14.484375 -2.882812 13.914062 -1.832031 12.78125 -1.09375 C 11.644531 -0.363281 10.03125 0 7.9375 0 L 0.828125 0 L 0.75 -1.390625 Z M 6.5625 -4.328125 C 6.5625 -3.722656 6.566406 -3.207031 6.578125 -2.78125 C 6.597656 -2.363281 6.617188 -2.046875 6.640625 -1.828125 C 6.785156 -1.765625 6.972656 -1.710938 7.203125 -1.671875 C 7.441406 -1.628906 7.6875 -1.609375 7.9375 -1.609375 C 8.601562 -1.609375 9.128906 -1.8125 9.515625 -2.21875 C 9.910156 -2.625 10.109375 -3.160156 10.109375 -3.828125 C 10.109375 -4.722656 9.890625 -5.375 9.453125 -5.78125 C 9.015625 -6.1875 8.28125 -6.390625 7.25 -6.390625 C 7.125 -6.390625 6.96875 -6.382812 6.78125 -6.375 C 6.601562 -6.375 6.398438 -6.359375 6.171875 -6.328125 L 6.171875 -8.203125 C 6.421875 -8.179688 6.613281 -8.164062 6.75 -8.15625 C 6.882812 -8.15625 7.007812 -8.15625 7.125 -8.15625 C 7.90625 -8.15625 8.472656 -8.359375 8.828125 -8.765625 C 9.191406 -9.171875 9.375 -9.75 9.375 -10.5 C 9.375 -11.1875 9.191406 -11.738281 8.828125 -12.15625 C 8.472656 -12.582031 7.882812 -12.796875 7.0625 -12.796875 L 6.609375 -12.796875 C 6.597656 -12.628906 6.585938 -12.289062 6.578125 -11.78125 C 6.566406 -11.269531 6.5625 -10.65625 6.5625 -9.9375 Z M 6.5625 -4.328125 "/></g></g><g style="fill:#ffffff;fill-opacity:1;"><g transform="translate(195.845302, 318.285068)"><path style="stroke:none" d="M 0 0 L -0.078125 -1.390625 L 1.21875 -1.859375 L 6.15625 -13.421875 L 8.5625 -14.765625 L 14.375 -1.859375 L 15.671875 -1.390625 L 15.59375 0 L 8.0625 0 L 7.9375 -1.390625 L 9.546875 -1.859375 L 8.34375 -4.65625 L 8.078125 -5.5625 L 5.765625 -10.796875 L 6.59375 -10.25 L 4.890625 -5.6875 L 4.65625 -4.953125 L 3.59375 -1.859375 L 5.203125 -1.390625 L 5.125 0 Z M 3.953125 -3.90625 L 3.953125 -5.8125 C 4.296875 -5.789062 4.640625 -5.765625 4.984375 -5.734375 C 5.335938 -5.703125 5.828125 -5.6875 6.453125 -5.6875 C 7.046875 -5.6875 7.53125 -5.703125 7.90625 -5.734375 C 8.28125 -5.765625 8.628906 -5.789062 8.953125 -5.8125 L 8.953125 -3.9375 C 8.828125 -3.9375 8.566406 -3.941406 8.171875 -3.953125 C 7.785156 -3.972656 7.210938 -3.984375 6.453125 -3.984375 C 5.648438 -3.984375 5.066406 -3.972656 4.703125 -3.953125 C 4.335938 -3.941406 4.085938 -3.925781 3.953125 -3.90625 Z M 3.953125 -3.90625 "/></g></g><g style="fill:#ffffff;fill-opacity:1;"><g transform="translate(211.296988, 318.285068)"><path style="stroke:none" d="M 12.9375 -5.125 L 12.9375 -7.8125 C 12.9375 -8.5 12.929688 -9.179688 12.921875 -9.859375 C 12.921875 -10.546875 12.90625 -11.132812 12.875 -11.625 C 12.851562 -12.113281 12.816406 -12.394531 12.765625 -12.46875 L 11.03125 -12.9375 L 11.109375 -14.328125 L 16.671875 -14.328125 L 16.75 -12.9375 L 15.15625 -12.46875 C 15.125 -12.394531 15.09375 -12.113281 15.0625 -11.625 C 15.03125 -11.144531 15.007812 -10.5625 15 -9.875 C 14.988281 -9.195312 14.984375 -8.507812 14.984375 -7.8125 L 14.984375 -3.875 C 14.984375 -2.988281 14.976562 -2.238281 14.96875 -1.625 C 14.96875 -1.007812 14.96875 -0.421875 14.96875 0.140625 L 13.234375 0.140625 L 2.875 -10.796875 L 4.6875 -10.796875 L 4.6875 -6.984375 C 4.6875 -6.171875 4.691406 -5.394531 4.703125 -4.65625 C 4.710938 -3.914062 4.734375 -3.289062 4.765625 -2.78125 C 4.796875 -2.28125 4.835938 -1.972656 4.890625 -1.859375 L 6.609375 -1.390625 L 6.546875 0 L 0.859375 0 L 0.78125 -1.390625 L 2.375 -1.859375 C 2.40625 -1.972656 2.429688 -2.296875 2.453125 -2.828125 C 2.472656 -3.367188 2.492188 -4.015625 2.515625 -4.765625 C 2.535156 -5.515625 2.546875 -6.253906 2.546875 -6.984375 L 2.546875 -9.625 C 2.546875 -9.8125 2.53125 -10.101562 2.5 -10.5 C 2.476562 -10.90625 2.453125 -11.300781 2.421875 -11.6875 C 2.398438 -12.082031 2.382812 -12.34375 2.375 -12.46875 L 0.78125 -12.9375 L 0.859375 -14.328125 L 5.046875 -14.328125 L 14.28125 -5.125 Z M 12.9375 -5.125 "/></g></g><g style="fill:#0cc0df;fill-opacity:1;"><g transform="translate(160.699755, 337.749969)"><path style="stroke:none" d="M 5.0625 -5.765625 L 5.28125 -4.1875 L 4.84375 -4.140625 L 4.4375 -5.25 C 4.382812 -5.257812 4.320312 -5.265625 4.25 -5.265625 C 4.1875 -5.273438 4.128906 -5.28125 4.078125 -5.28125 L 3.71875 -5.28125 C 3.65625 -5.28125 3.566406 -5.28125 3.453125 -5.28125 C 3.347656 -5.28125 3.25 -5.273438 3.15625 -5.265625 C 3.15625 -5.210938 3.148438 -5.085938 3.140625 -4.890625 C 3.140625 -4.703125 3.140625 -4.476562 3.140625 -4.21875 C 3.140625 -3.96875 3.140625 -3.726562 3.140625 -3.5 L 3.140625 -2.171875 C 3.140625 -1.765625 3.144531 -1.410156 3.15625 -1.109375 C 3.164062 -0.804688 3.171875 -0.609375 3.171875 -0.515625 L 4 -0.390625 L 3.96875 0 L 1.46875 0 L 1.453125 -0.390625 L 2.28125 -0.515625 C 2.28125 -0.609375 2.28125 -0.804688 2.28125 -1.109375 C 2.289062 -1.410156 2.296875 -1.765625 2.296875 -2.171875 L 2.296875 -3.5 C 2.296875 -3.726562 2.296875 -3.96875 2.296875 -4.21875 C 2.296875 -4.476562 2.296875 -4.703125 2.296875 -4.890625 C 2.296875 -5.085938 2.289062 -5.210938 2.28125 -5.265625 C 2.195312 -5.273438 2.097656 -5.28125 1.984375 -5.28125 C 1.878906 -5.28125 1.796875 -5.28125 1.734375 -5.28125 L 1.34375 -5.28125 C 1.289062 -5.28125 1.234375 -5.273438 1.171875 -5.265625 C 1.109375 -5.265625 1.050781 -5.257812 1 -5.25 L 0.59375 -4.125 L 0.15625 -4.1875 L 0.375 -5.765625 C 0.445312 -5.765625 0.519531 -5.757812 0.59375 -5.75 C 0.675781 -5.75 0.757812 -5.742188 0.84375 -5.734375 C 0.925781 -5.734375 1.003906 -5.734375 1.078125 -5.734375 C 1.160156 -5.734375 1.238281 -5.734375 1.3125 -5.734375 L 4.109375 -5.734375 C 4.179688 -5.734375 4.257812 -5.734375 4.34375 -5.734375 C 4.425781 -5.734375 4.503906 -5.734375 4.578125 -5.734375 C 4.660156 -5.742188 4.738281 -5.75 4.8125 -5.75 C 4.894531 -5.757812 4.976562 -5.765625 5.0625 -5.765625 Z M 5.0625 -5.765625 "/></g></g><g style="fill:#0cc0df;fill-opacity:1;"><g transform="translate(167.637071, 337.749969)"><path style="stroke:none" d="M 3.40625 0.09375 C 2.84375 0.09375 2.335938 -0.03125 1.890625 -0.28125 C 1.453125 -0.53125 1.109375 -0.875 0.859375 -1.3125 C 0.617188 -1.757812 0.5 -2.269531 0.5 -2.84375 C 0.5 -3.414062 0.625 -3.925781 0.875 -4.375 C 1.125 -4.820312 1.472656 -5.175781 1.921875 -5.4375 C 2.367188 -5.695312 2.867188 -5.828125 3.421875 -5.828125 C 3.972656 -5.828125 4.457031 -5.703125 4.875 -5.453125 C 5.289062 -5.203125 5.617188 -4.859375 5.859375 -4.421875 C 6.097656 -3.984375 6.21875 -3.476562 6.21875 -2.90625 C 6.21875 -2.46875 6.140625 -2.066406 5.984375 -1.703125 C 5.835938 -1.335938 5.632812 -1.019531 5.375 -0.75 C 5.113281 -0.488281 4.8125 -0.28125 4.46875 -0.125 C 4.132812 0.0195312 3.78125 0.09375 3.40625 0.09375 Z M 3.5 -0.4375 C 3.851562 -0.4375 4.160156 -0.523438 4.421875 -0.703125 C 4.679688 -0.890625 4.878906 -1.148438 5.015625 -1.484375 C 5.148438 -1.828125 5.21875 -2.222656 5.21875 -2.671875 C 5.21875 -3.203125 5.132812 -3.664062 4.96875 -4.0625 C 4.8125 -4.457031 4.59375 -4.765625 4.3125 -4.984375 C 4.03125 -5.210938 3.695312 -5.328125 3.3125 -5.328125 C 2.757812 -5.328125 2.320312 -5.117188 2 -4.703125 C 1.675781 -4.296875 1.515625 -3.738281 1.515625 -3.03125 C 1.515625 -2.519531 1.597656 -2.070312 1.765625 -1.6875 C 1.929688 -1.300781 2.164062 -0.992188 2.46875 -0.765625 C 2.769531 -0.546875 3.113281 -0.4375 3.5 -0.4375 Z M 3.5 -0.4375 "/></g></g><g style="fill:#0cc0df;fill-opacity:1;"><g transform="translate(175.833661, 337.749969)"><path style="stroke:none" d="M 0.484375 -5.734375 L 2.84375 -5.734375 C 3.875 -5.734375 4.675781 -5.488281 5.25 -5 C 5.820312 -4.507812 6.109375 -3.820312 6.109375 -2.9375 C 6.109375 -2.363281 5.972656 -1.851562 5.703125 -1.40625 C 5.441406 -0.96875 5.070312 -0.625 4.59375 -0.375 C 4.125 -0.125 3.578125 0 2.953125 0 L 0.484375 0 L 0.453125 -0.375 L 1.0625 -0.515625 C 1.070312 -0.566406 1.082031 -0.726562 1.09375 -1 C 1.101562 -1.28125 1.109375 -1.59375 1.109375 -1.9375 L 1.109375 -3.78125 C 1.109375 -4.164062 1.101562 -4.492188 1.09375 -4.765625 C 1.082031 -5.035156 1.070312 -5.1875 1.0625 -5.21875 L 0.453125 -5.359375 Z M 1.953125 -5.203125 C 1.953125 -5.140625 1.945312 -5.054688 1.9375 -4.953125 C 1.9375 -4.859375 1.9375 -4.71875 1.9375 -4.53125 C 1.9375 -4.351562 1.9375 -4.101562 1.9375 -3.78125 L 1.9375 -1.9375 C 1.9375 -1.75 1.9375 -1.566406 1.9375 -1.390625 C 1.9375 -1.222656 1.941406 -1.066406 1.953125 -0.921875 C 1.960938 -0.785156 1.972656 -0.675781 1.984375 -0.59375 C 2.191406 -0.5625 2.378906 -0.535156 2.546875 -0.515625 C 2.710938 -0.503906 2.875 -0.5 3.03125 -0.5 C 3.71875 -0.5 4.238281 -0.679688 4.59375 -1.046875 C 4.957031 -1.421875 5.140625 -1.953125 5.140625 -2.640625 C 5.140625 -3.066406 5.085938 -3.441406 4.984375 -3.765625 C 4.878906 -4.097656 4.722656 -4.375 4.515625 -4.59375 C 4.304688 -4.820312 4.054688 -4.992188 3.765625 -5.109375 C 3.472656 -5.222656 3.128906 -5.28125 2.734375 -5.28125 C 2.617188 -5.28125 2.492188 -5.273438 2.359375 -5.265625 C 2.234375 -5.253906 2.097656 -5.234375 1.953125 -5.203125 Z M 1.953125 -5.203125 "/></g></g><g style="fill:#0cc0df;fill-opacity:1;"><g transform="translate(183.991204, 337.749969)"><path style="stroke:none" d="M 3.40625 0.09375 C 2.84375 0.09375 2.335938 -0.03125 1.890625 -0.28125 C 1.453125 -0.53125 1.109375 -0.875 0.859375 -1.3125 C 0.617188 -1.757812 0.5 -2.269531 0.5 -2.84375 C 0.5 -3.414062 0.625 -3.925781 0.875 -4.375 C 1.125 -4.820312 1.472656 -5.175781 1.921875 -5.4375 C 2.367188 -5.695312 2.867188 -5.828125 3.421875 -5.828125 C 3.972656 -5.828125 4.457031 -5.703125 4.875 -5.453125 C 5.289062 -5.203125 5.617188 -4.859375 5.859375 -4.421875 C 6.097656 -3.984375 6.21875 -3.476562 6.21875 -2.90625 C 6.21875 -2.46875 6.140625 -2.066406 5.984375 -1.703125 C 5.835938 -1.335938 5.632812 -1.019531 5.375 -0.75 C 5.113281 -0.488281 4.8125 -0.28125 4.46875 -0.125 C 4.132812 0.0195312 3.78125 0.09375 3.40625 0.09375 Z M 3.5 -0.4375 C 3.851562 -0.4375 4.160156 -0.523438 4.421875 -0.703125 C 4.679688 -0.890625 4.878906 -1.148438 5.015625 -1.484375 C 5.148438 -1.828125 5.21875 -2.222656 5.21875 -2.671875 C 5.21875 -3.203125 5.132812 -3.664062 4.96875 -4.0625 C 4.8125 -4.457031 4.59375 -4.765625 4.3125 -4.984375 C 4.03125 -5.210938 3.695312 -5.328125 3.3125 -5.328125 C 2.757812 -5.328125 2.320312 -5.117188 2 -4.703125 C 1.675781 -4.296875 1.515625 -3.738281 1.515625 -3.03125 C 1.515625 -2.519531 1.597656 -2.070312 1.765625 -1.6875 C 1.929688 -1.300781 2.164062 -0.992188 2.46875 -0.765625 C 2.769531 -0.546875 3.113281 -0.4375 3.5 -0.4375 Z M 3.5 -0.4375 "/></g></g><g style="fill:#0cc0df;fill-opacity:1;"><g transform="translate(192.187794, 337.749969)"><path style="stroke:none" d=""/></g></g><g style="fill:#0cc0df;fill-opacity:1;"><g transform="translate(195.56205, 337.749969)"><path style="stroke:none" d="M 0.03125 0 L 0.015625 -0.375 L 0.484375 -0.515625 L 2.5 -5.5625 L 3.0625 -5.90625 L 5.203125 -0.515625 L 5.6875 -0.375 L 5.65625 0 L 3.6875 0 L 3.65625 -0.375 L 4.265625 -0.515625 L 3.6875 -1.953125 L 3.578125 -2.25 L 2.515625 -4.90625 L 2.734375 -5.046875 L 1.71875 -2.25 L 1.609375 -1.96875 L 1.09375 -0.515625 L 1.6875 -0.375 L 1.671875 0 Z M 1.390625 -1.8125 L 1.390625 -2.328125 C 1.515625 -2.316406 1.6875 -2.304688 1.90625 -2.296875 C 2.125 -2.296875 2.390625 -2.296875 2.703125 -2.296875 C 3.003906 -2.296875 3.265625 -2.296875 3.484375 -2.296875 C 3.703125 -2.304688 3.867188 -2.316406 3.984375 -2.328125 L 3.984375 -1.8125 C 3.765625 -1.8125 3.546875 -1.8125 3.328125 -1.8125 C 3.109375 -1.820312 2.898438 -1.828125 2.703125 -1.828125 C 2.503906 -1.828125 2.296875 -1.820312 2.078125 -1.8125 C 1.867188 -1.8125 1.640625 -1.8125 1.390625 -1.8125 Z M 1.390625 -1.8125 "/></g></g><g style="fill:#0cc0df;fill-opacity:1;"><g transform="translate(202.743411, 337.749969)"><path style="stroke:none" d="M 0.515625 0 L 0.484375 -0.375 L 1.0625 -0.515625 C 1.070312 -0.535156 1.078125 -0.585938 1.078125 -0.671875 C 1.078125 -0.765625 1.078125 -0.90625 1.078125 -1.09375 C 1.085938 -1.289062 1.09375 -1.554688 1.09375 -1.890625 L 1.109375 -3.875 C 1.109375 -4.195312 1.101562 -4.453125 1.09375 -4.640625 C 1.082031 -4.828125 1.078125 -4.96875 1.078125 -5.0625 C 1.078125 -5.15625 1.070312 -5.207031 1.0625 -5.21875 L 0.453125 -5.359375 L 0.484375 -5.734375 L 2.5625 -5.734375 C 3.207031 -5.734375 3.707031 -5.59375 4.0625 -5.3125 C 4.425781 -5.03125 4.609375 -4.617188 4.609375 -4.078125 C 4.609375 -3.710938 4.515625 -3.394531 4.328125 -3.125 C 4.140625 -2.863281 3.890625 -2.660156 3.578125 -2.515625 C 3.265625 -2.367188 2.921875 -2.296875 2.546875 -2.296875 C 2.390625 -2.296875 2.25 -2.300781 2.125 -2.3125 C 2 -2.332031 1.882812 -2.351562 1.78125 -2.375 L 1.78125 -2.90625 C 1.925781 -2.851562 2.050781 -2.816406 2.15625 -2.796875 C 2.269531 -2.785156 2.390625 -2.78125 2.515625 -2.78125 C 2.898438 -2.78125 3.195312 -2.875 3.40625 -3.0625 C 3.625 -3.25 3.734375 -3.546875 3.734375 -3.953125 C 3.734375 -4.421875 3.613281 -4.757812 3.375 -4.96875 C 3.132812 -5.1875 2.832031 -5.296875 2.46875 -5.296875 L 1.9375 -5.296875 C 1.9375 -5.265625 1.9375 -5.175781 1.9375 -5.03125 C 1.9375 -4.894531 1.929688 -4.722656 1.921875 -4.515625 C 1.921875 -4.316406 1.921875 -4.101562 1.921875 -3.875 L 1.9375 -1.890625 C 1.9375 -1.554688 1.9375 -1.296875 1.9375 -1.109375 C 1.9375 -0.921875 1.941406 -0.78125 1.953125 -0.6875 C 1.960938 -0.601562 1.96875 -0.546875 1.96875 -0.515625 L 2.78125 -0.390625 L 2.75 0 Z M 0.515625 0 "/></g></g><g style="fill:#0cc0df;fill-opacity:1;"><g transform="translate(209.26097, 337.749969)"><path style="stroke:none" d="M 0.515625 0 L 0.484375 -0.375 L 1.0625 -0.515625 C 1.070312 -0.535156 1.078125 -0.585938 1.078125 -0.671875 C 1.078125 -0.765625 1.078125 -0.90625 1.078125 -1.09375 C 1.085938 -1.289062 1.09375 -1.554688 1.09375 -1.890625 L 1.109375 -3.875 C 1.109375 -4.195312 1.101562 -4.453125 1.09375 -4.640625 C 1.082031 -4.828125 1.078125 -4.96875 1.078125 -5.0625 C 1.078125 -5.15625 1.070312 -5.207031 1.0625 -5.21875 L 0.453125 -5.359375 L 0.484375 -5.734375 L 2.5625 -5.734375 C 3.207031 -5.734375 3.707031 -5.59375 4.0625 -5.3125 C 4.425781 -5.03125 4.609375 -4.617188 4.609375 -4.078125 C 4.609375 -3.710938 4.515625 -3.394531 4.328125 -3.125 C 4.140625 -2.863281 3.890625 -2.660156 3.578125 -2.515625 C 3.265625 -2.367188 2.921875 -2.296875 2.546875 -2.296875 C 2.390625 -2.296875 2.25 -2.300781 2.125 -2.3125 C 2 -2.332031 1.882812 -2.351562 1.78125 -2.375 L 1.78125 -2.90625 C 1.925781 -2.851562 2.050781 -2.816406 2.15625 -2.796875 C 2.269531 -2.785156 2.390625 -2.78125 2.515625 -2.78125 C 2.898438 -2.78125 3.195312 -2.875 3.40625 -3.0625 C 3.625 -3.25 3.734375 -3.546875 3.734375 -3.953125 C 3.734375 -4.421875 3.613281 -4.757812 3.375 -4.96875 C 3.132812 -5.1875 2.832031 -5.296875 2.46875 -5.296875 L 1.9375 -5.296875 C 1.9375 -5.265625 1.9375 -5.175781 1.9375 -5.03125 C 1.9375 -4.894531 1.929688 -4.722656 1.921875 -4.515625 C 1.921875 -4.316406 1.921875 -4.101562 1.921875 -3.875 L 1.9375 -1.890625 C 1.9375 -1.554688 1.9375 -1.296875 1.9375 -1.109375 C 1.9375 -0.921875 1.941406 -0.78125 1.953125 -0.6875 C 1.960938 -0.601562 1.96875 -0.546875 1.96875 -0.515625 L 2.78125 -0.390625 L 2.75 0 Z M 0.515625 0 "/></g></g></g></svg>